<svg height="512pt" viewBox="-54 0 512 512" width="512pt" xmlns="http://www.w3.org/2000/svg"><path d="m205.96875 7.757812h-8.1875c-6.851562 0-12.40625 5.550782-12.40625 12.402344v365.378906h33v-365.378906c0-6.851562-5.554688-12.402344-12.40625-12.402344zm0 0" fill="#996459"/><path d="m205.542969 7.757812h-7.335938c-1.617187 0-3.15625.308594-4.582031.855469 4.820312 1.847657 8.25 6.503907 8.25 11.972657v364.953124h16.5v-364.949218c0-7.089844-5.746094-12.832032-12.832031-12.832032zm0 0" fill="#875850"/><path d="m235.359375 415.214844h-4.53125c4.09375 0 7.808594 1.652344 10.488281 4.34375 1.179688 1.191406 2.171875 2.578125 2.894532 4.105468.933593 1.9375 1.449218 4.097657 1.449218 6.394532 0 8.195312-6.640625 14.832031-14.832031 14.832031h-4.53125c5.90625 0 11.003906 3.457031 13.382813 8.453125.933593 1.933594 1.449218 4.09375 1.449218 6.382812 0 8.203126-6.640625 14.84375-14.832031 14.84375h-4.542969c5.917969 0 11.019532 3.453126 13.398438 8.449219.929687 1.933594 1.445312 4.097657 1.445312 6.382813 0 8.191406-6.640625 14.84375-14.84375 14.84375h-78.449218c-5.59375 0-10.984376-2.109375-15.101563-5.894532-4.117187-3.789062-9.507813-5.898437-15.101563-5.898437h-8.320312v-87.335937l38.71875-36.679688c5.410156-5.128906 9.652344-11.242188 12.527344-17.945312 2.886718-6.703126 4.417968-13.984376 4.417968-21.433594 0-7.160156 5.800782-12.960938 12.960938-12.960938 6.09375 0 11.359375 4.242188 12.660156 10.1875l2.328125 10.59375c2.667969 12.132813 2.574219 24.699219-.25 36.792969l-2.769531 11.863281h49.980469c8.195312 0 14.835937 6.652344 14.835937 14.847656 0 8.191407-6.640625 14.832032-14.832031 14.832032zm0 0" fill="#fdd7bd"/><path d="m92.230469 504.242188h-25.914063c-6.9375 0-12.558594-5.621094-12.558594-12.558594v-88.492188c0-6.9375 5.621094-12.558594 12.558594-12.558594h25.914063c6.933593 0 12.558593 5.621094 12.558593 12.558594v88.492188c-.003906 6.9375-5.625 12.558594-12.558593 12.558594zm0 0" fill="#87dbff"/><path d="m91.796875 390.632812h-21.375c7.171875 0 12.988281 5.816407 12.988281 12.988282v87.632812c0 7.171875-5.816406 12.988282-12.988281 12.988282h21.375c7.175781 0 12.992187-5.816407 12.992187-12.988282v-87.632812c-.003906-7.171875-5.816406-12.988282-12.992187-12.988282zm0 0" fill="#6fc7ff"/><path d="m372.761719 213.902344h-341.773438c-12.828125 0-23.230469-10.398438-23.230469-23.230469v-126.824219c0-12.832031 10.402344-23.234375 23.230469-23.234375h341.773438c12.828125 0 23.230469 10.402344 23.230469 23.234375v126.824219c0 12.832031-10.402344 23.230469-23.230469 23.230469zm0 0" fill="#ffd782"/><path d="m371.960938 40.613281h-47.066407c13.273438 0 24.03125 10.761719 24.03125 24.03125v125.226563c0 13.273437-10.757812 24.03125-24.03125 24.03125h47.066407c13.273437 0 24.03125-10.757813 24.03125-24.03125v-125.226563c0-13.269531-10.757813-24.03125-24.03125-24.03125zm0 0" fill="#ffc36f"/><g fill="#fac5aa"><path d="m244.214844 423.664062h-42.132813c-4.675781 0-8.453125-3.785156-8.453125-8.449218h37.199219c4.097656 0 7.808594 1.652344 10.488281 4.34375 1.179688 1.191406 2.171875 2.578125 2.898438 4.105468zm0 0"/><path d="m239.683594 453.34375h-39.175782c-4.675781 0-8.449218-3.785156-8.449218-8.453125h34.238281c5.90625 0 11.007813 3.457031 13.386719 8.453125zm0 0"/><path d="m235.152344 483.019531h-36.371094c-4.664062 0-8.453125-3.785156-8.453125-8.449219h31.429687c5.914063 0 11.015626 3.453126 13.394532 8.449219zm0 0"/></g><path d="m371.960938 32.855469h-47.066407c-4.285156 0-7.757812 3.472656-7.757812 7.757812 0 4.285157 3.472656 7.757813 7.757812 7.757813h47.066407c8.972656 0 16.273437 7.300781 16.273437 16.273437v125.226563c0 8.972656-7.300781 16.273437-16.273437 16.273437h-340.171876c-8.972656 0-16.273437-7.300781-16.273437-16.273437v-125.226563c0-8.972656 7.300781-16.273437 16.273437-16.273437h260.402344c4.285156 0 7.757813-3.472656 7.757813-7.757813 0-4.285156-3.472657-7.757812-7.757813-7.757812h-66.058594v-12.269531c0-11.351563-9.234374-20.585938-20.585937-20.585938h-7.335937c-11.355469 0-20.59375 9.234375-20.59375 20.585938v12.269531h-145.828126c-17.527343 0-31.789062 14.261719-31.789062 31.789062v125.226563c0 17.527344 14.261719 31.789062 31.789062 31.789062h145.828126v65.8125c0 4.285156 3.472656 7.757813 7.757812 7.757813s7.757812-3.472657 7.757812-7.757813v-65.8125h17.480469v156.117188h-15.457031l.546875-2.339844c3.070313-13.136719 3.164063-27.046875.273437-40.21875l-2.324218-10.597656c-2.070313-9.4375-10.585938-16.285156-20.246094-16.285156-11.425781 0-20.722656 9.296874-20.722656 20.726562 0 12.703125-5.289063 25.003906-14.511719 33.742188l-29.871094 28.296874c-3.792969-4.988281-9.769531-8.226562-16.503906-8.226562h-25.050781c-11.4375 0-20.746094 9.308594-20.746094 20.746094v87.632812c0 11.4375 9.308594 20.746094 20.746094 20.746094h25.050781c8.226563 0 15.328125-4.824219 18.683594-11.78125h4.808593c3.65625 0 7.15625 1.363281 9.847657 3.839844 5.5625 5.121094 12.789062 7.941406 20.351562 7.941406h78.457031c12.457032 0 22.59375-10.136719 22.59375-22.597656 0-4.527344-1.34375-8.746094-3.648437-12.289063 4.996094-4.144531 8.183594-10.398437 8.183594-17.382812 0-4.53125-1.347657-8.75-3.648438-12.289063 4.992188-4.148437 8.179688-10.402344 8.179688-17.386718 0-4.53125-1.34375-8.75-3.648438-12.289063 4.992188-4.148437 8.179688-10.402344 8.179688-17.386719 0-12.457031-10.136719-22.597656-22.597657-22.597656h-11.410156v-156.121094h145.832032c17.527343 0 31.789062-14.261718 31.789062-31.789062v-125.226563c0-17.527343-14.261719-31.789062-31.789062-31.789062zm-178.828126-12.269531c0-2.796876 2.277344-5.070313 5.078126-5.070313h7.335937c2.792969 0 5.066406 2.273437 5.066406 5.070313v12.269531h-17.480469zm-101.335937 475.898437h-25.050781c-2.882813 0-5.230469-2.347656-5.230469-5.230469v-87.632812c0-2.882813 2.347656-5.230469 5.230469-5.230469h25.050781c2.886719 0 5.234375 2.347656 5.234375 5.230469v87.632812c-.003906 2.882813-2.347656 5.230469-5.234375 5.230469zm152.824219-96.105469c0 3.902344-3.175782 7.082032-7.078125 7.082032h-14.636719c-4.285156 0-7.757812 3.472656-7.757812 7.757812s3.472656 7.757812 7.757812 7.757812h10.105469c3.902343 0 7.078125 3.175782 7.078125 7.078126 0 3.902343-3.175782 7.078124-7.078125 7.078124h-14.636719c-4.285156 0-7.757812 3.472657-7.757812 7.757813s3.472656 7.757813 7.757812 7.757813h10.101562c3.90625 0 7.082032 3.175781 7.082032 7.082031 0 3.902343-3.175782 7.078125-7.082032 7.078125h-14.632812c-4.285156 0-7.757812 3.472656-7.757812 7.757812s3.472656 7.757813 7.757812 7.757813h10.101562c3.902344 0 7.078126 3.175781 7.078126 7.078125 0 3.90625-3.175782 7.082031-7.078126 7.082031h-78.457031c-3.65625 0-7.152343-1.367187-9.84375-3.84375-5.5625-5.121094-12.792969-7.941406-20.355469-7.941406h-2.742187v-76.246094l36.296875-34.386719c12.300781-11.65625 19.355469-28.058594 19.355469-45.003906 0-2.875 2.335937-5.210938 5.207031-5.210938 2.429688 0 4.570312 1.722657 5.089844 4.09375l2.324218 10.597657c2.398438 10.929687 2.320313 22.464843-.226562 33.363281l-2.773438 11.871094c-1.117187 4.777344 2.648438 9.523437 7.558594 9.523437h52.164063c3.902343 0 7.078125 3.175781 7.078125 7.078125zm0 0"/><path d="m141.609375 90.289062c-2.921875 0-4.652344.984376-5.195313 2.953126l-14.160156 52.253906-14.261718-52.253906c-.542969-1.96875-2.273438-2.953126-5.191407-2.953126-2.378906 0-4.671875.644532-6.878906 1.933594-2.207031 1.292969-3.308594 2.820313-3.308594 4.585938 0 .203125.066407.578125.203125 1.121094l19.046875 62.132812c.542969 1.699219 1.785157 3.003906 3.71875 3.921875 1.9375.917969 4.160157 1.375 6.671875 1.375 2.511719 0 4.738282-.457031 6.671875-1.375 1.9375-.917969 3.175781-2.222656 3.71875-3.921875l18.945313-62.132812c.136718-.542969.207031-.917969.207031-1.121094 0-1.765625-1.105469-3.292969-3.3125-4.585938-2.207031-1.289062-4.5-1.933594-6.875-1.933594zm0 0"/><path d="m181.839844 90.289062c-7.535156 0-13.582032 1.933594-18.128906 5.804688-4.550782 3.871094-6.824219 9.949219-6.824219 18.234375v26.992187c0 8.285157 2.273437 14.363282 6.824219 18.234376 4.546874 3.871093 10.59375 5.804687 18.128906 5.804687 7.605468 0 13.683594-1.933594 18.234375-5.804687 4.546875-3.871094 6.824219-9.949219 6.824219-18.234376v-26.992187c0-8.285156-2.277344-14.363281-6.824219-18.234375-4.550781-3.867188-10.628907-5.804688-18.234375-5.804688zm9.167968 51.03125c0 6.792969-3.054687 10.1875-9.164062 10.1875-6.046875 0-9.066406-3.394531-9.066406-10.1875v-26.992187c0-6.789063 3.019531-10.1875 9.066406-10.1875 6.109375 0 9.164062 3.398437 9.164062 10.1875zm0 0"/><path d="m232.464844 163.46875c1.5625.851562 3.429687 1.277344 5.601562 1.277344 2.175782 0 4.042969-.425782 5.605469-1.277344 1.558594-.855469 2.339844-2.070312 2.339844-3.644531v-55.683594h14.058593c1.492188 0 2.664063-.671875 3.515626-2.027344.847656-1.351562 1.269531-3.015625 1.269531-4.996093 0-1.847657-.40625-3.445313-1.21875-4.796876-.816407-1.355468-2.003907-2.03125-3.566407-2.03125h-44.003906c-1.5625 0-2.75.675782-3.566406 2.03125-.8125 1.351563-1.222656 2.949219-1.222656 4.796876 0 1.980468.425781 3.644531 1.273437 4.996093.851563 1.355469 2.019531 2.027344 3.515625 2.027344h14.054688v55.683594c0 1.574219.78125 2.789062 2.34375 3.644531zm0 0"/><path d="m314.359375 104.140625c1.496094 0 2.664063-.675781 3.515625-2.035156.847656-1.359375 1.273438-3.019531 1.273438-4.992188 0-1.832031-.40625-3.429687-1.222657-4.789062-.816406-1.355469-2.003906-2.035157-3.566406-2.035157h-36.261719c-1.902344 0-3.53125.425782-4.886718 1.273438-1.359376.847656-2.039063 2.054688-2.039063 3.617188v64.679687c0 1.5625.679687 2.769531 2.039063 3.617187 1.355468.847657 2.984374 1.269532 4.886718 1.269532h36.261719c1.5625 0 2.75-.675782 3.566406-2.035156.816407-1.359376 1.222657-2.953126 1.222657-4.789063 0-1.96875-.425782-3.632813-1.273438-4.988281-.851562-1.359375-2.019531-2.039063-3.515625-2.039063h-27.296875v-17.316406h15.28125c1.558594 0 2.75-.609375 3.5625-1.832031.816406-1.222656 1.222656-2.613282 1.222656-4.175782 0-1.699218-.425781-3.160156-1.273437-4.378906-.847657-1.222656-2.019531-1.835937-3.511719-1.835937h-15.28125v-17.210938h27.296875zm0 0"/></svg>